<svg xmlns="http://www.w3.org/2000/svg" viewBox="0 0 64 64"><defs><style>.cls-1{fill:#d61c6c;}.cls-2{fill:#fff;}</style></defs><title>Recurso 2</title><g id="Capa_2" data-name="Capa 2"><g id="Capa_1-2" data-name="Capa 1"><circle class="cls-1" cx="32" cy="32" r="24.14"/><path class="cls-2" d="M48.69,33.53H20.9c.6,3.28,2,5.68,4.12,7.19A11.94,11.94,0,0,0,32,43a12.23,12.23,0,0,0,9.79-4.77l5,3.72a18.23,18.23,0,0,1-15.12,7.18,16.71,16.71,0,0,1-17-17,16.13,16.13,0,0,1,4.95-11.76,16.44,16.44,0,0,1,12.1-5,16.34,16.34,0,0,1,12,5.06Q48.76,25.47,48.69,33.53ZM21.61,28.14H41.5q-3.31-6.59-9.79-6.59Q24.65,21.55,21.61,28.14Z"/><path class="cls-1" d="M32,64A32,32,0,1,1,64,32,32,32,0,0,1,32,64ZM32,3.37A28.63,28.63,0,1,0,60.63,32,28.66,28.66,0,0,0,32,3.37Z"/></g></g></svg>